HIERARCHY
ROOT Hips
{
	OFFSET 0.000000 0.000000 0.000000
	CHANNELS 6 Xposition Yposition Zposition Zrotation Yrotation Xrotation 
	JOINT Spine1
	{
		OFFSET -0.013727 5.003763 -0.053727
		CHANNELS 3 Zrotation Yrotation Xrotation
		JOINT Spine2
		{
			OFFSET -0.000000 7.125302 -0.029825
			CHANNELS 3 Zrotation Yrotation Xrotation
			JOINT Chest
			{
				OFFSET -0.000001 7.550063 -0.815971
				CHANNELS 3 Zrotation Yrotation Xrotation
				JOINT Neck1
				{
					OFFSET -0.181677 26.311296 -0.553349
					CHANNELS 3 Zrotation Yrotation Xrotation
					JOINT Neck2
					{
						OFFSET -0.000003 7.709400 2.302586
						CHANNELS 3 Zrotation Yrotation Xrotation
						JOINT Head
						{
							OFFSET -0.000005 6.128913 1.953709
							CHANNELS 3 Zrotation Yrotation Xrotation
							JOINT HeadEnd
							{
								OFFSET 0.003598 16.065401 -1.835379
								CHANNELS 3 Zrotation Yrotation Xrotation
								End Site
								{
									OFFSET 0.000000 0.000000 0.000000
								}
							}
							JOINT Jaw
							{
								OFFSET 0.002637 0.475592 3.094941
								CHANNELS 3 Zrotation Yrotation Xrotation
								End Site
								{
									OFFSET 0.000000 0.000000 0.000000
								}
							}
							JOINT LeftEye
							{
								OFFSET 3.206381 5.380209 7.586883
								CHANNELS 3 Zrotation Yrotation Xrotation
								End Site
								{
									OFFSET 0.000000 0.000000 0.000000
								}
							}
							JOINT RightEye
							{
								OFFSET -3.222440 5.361868 7.558232
								CHANNELS 3 Zrotation Yrotation Xrotation
								End Site
								{
									OFFSET 0.000000 0.000000 0.000000
								}
							}
						}
					}
				}
				JOINT LeftShoulder
				{
					OFFSET 1.621652 23.237165 5.113412
					CHANNELS 3 Zrotation Yrotation Xrotation
					JOINT LeftArm
					{
						OFFSET 14.919845 -0.000001 -5.502325
						CHANNELS 3 Zrotation Yrotation Xrotation
						JOINT LeftForeArm
						{
							OFFSET 28.739309 0.000003 -0.002588
							CHANNELS 3 Zrotation Yrotation Xrotation
							JOINT LeftHand
							{
								OFFSET 27.093979 -0.000004 0.002609
								CHANNELS 3 Zrotation Yrotation Xrotation
								JOINT LeftHandThumb1
								{
									OFFSET 2.276480 -1.392045 3.191413
									CHANNELS 3 Zrotation Yrotation Xrotation
									JOINT LeftHandThumb2
									{
										OFFSET 4.012841 -1.828126 1.641656
										CHANNELS 3 Zrotation Yrotation Xrotation
										JOINT LeftHandThumb3
										{
											OFFSET 2.798517 0.000002 -0.000003
											CHANNELS 3 Zrotation Yrotation Xrotation
											JOINT LeftHandThumbEnd
											{
												OFFSET 3.180791 -0.000002 0.000002
												CHANNELS 3 Zrotation Yrotation Xrotation
												End Site
												{
													OFFSET 0.000000 0.000000 0.000000
												}
											}
										}
									}
								}
								JOINT LeftHandIndex1
								{
									OFFSET 3.247553 -0.531998 2.296169
									CHANNELS 3 Zrotation Yrotation Xrotation
									JOINT LeftHandIndex2
									{
										OFFSET 6.364580 0.012062 0.178599
										CHANNELS 3 Zrotation Yrotation Xrotation
										JOINT LeftHandIndex3
										{
											OFFSET 3.662368 0.000001 0.000001
											CHANNELS 3 Zrotation Yrotation Xrotation
											JOINT LeftHandIndex4
											{
												OFFSET 2.329242 0.000002 0.000004
												CHANNELS 3 Zrotation Yrotation Xrotation
												JOINT LeftHandIndexEnd
												{
													OFFSET 2.759619 -0.180538 -0.113024
													CHANNELS 3 Zrotation Yrotation Xrotation
													End Site
													{
														OFFSET 0.000000 0.000000 0.000000
													}
												}
											}
										}
									}
								}
								JOINT LeftHandMiddle1
								{
									OFFSET 3.163500 0.240982 1.000332
									CHANNELS 3 Zrotation Yrotation Xrotation
									JOINT LeftHandMiddle2
									{
										OFFSET 6.190778 -0.259276 -1.002548
										CHANNELS 3 Zrotation Yrotation Xrotation
										JOINT LeftHandMiddle3
										{
											OFFSET 4.356523 -0.000005 0.000000
											CHANNELS 3 Zrotation Yrotation Xrotation
											JOINT LeftHandMiddle4
											{
												OFFSET 2.996875 -0.000007 0.000000
												CHANNELS 3 Zrotation Yrotation Xrotation
												JOINT LeftHandMiddleEnd
												{
													OFFSET 2.304294 -0.294571 -0.031740
													CHANNELS 3 Zrotation Yrotation Xrotation
													End Site
													{
														OFFSET 0.000000 0.000000 0.000000
													}
												}
											}
										}
									}
								}
								JOINT LeftHandRing1
								{
									OFFSET 2.882641 -0.053650 -0.322544
									CHANNELS 3 Zrotation Yrotation Xrotation
									JOINT LeftHandRing2
									{
										OFFSET 5.854543 -0.486203 -1.373841
										CHANNELS 3 Zrotation Yrotation Xrotation
										JOINT LeftHandRing3
										{
											OFFSET 4.350580 0.000000 0.000003
											CHANNELS 3 Zrotation Yrotation Xrotation
											JOINT LeftHandRing4
											{
												OFFSET 2.651325 0.000007 0.000003
												CHANNELS 3 Zrotation Yrotation Xrotation
												JOINT LeftHandRingEnd
												{
													OFFSET 1.936110 0.077686 -0.000070
													CHANNELS 3 Zrotation Yrotation Xrotation
													End Site
													{
														OFFSET 0.000000 0.000000 0.000000
													}
												}
											}
										}
									}
								}
								JOINT LeftHandPinky1
								{
									OFFSET 2.865499 -0.310004 -1.600378
									CHANNELS 3 Zrotation Yrotation Xrotation
									JOINT LeftHandPinky2
									{
										OFFSET 5.087853 -1.331141 -1.771231
										CHANNELS 3 Zrotation Yrotation Xrotation
										JOINT LeftHandPinky3
										{
											OFFSET 3.070976 0.000003 0.000001
											CHANNELS 3 Zrotation Yrotation Xrotation
											JOINT LeftHandPinky4
											{
												OFFSET 1.549667 0.000000 0.000000
												CHANNELS 3 Zrotation Yrotation Xrotation
												JOINT LeftHandPinkyEnd
												{
													OFFSET 1.944894 -0.157802 0.057219
													CHANNELS 3 Zrotation Yrotation Xrotation
													End Site
													{
														OFFSET 0.000000 0.000000 0.000000
													}
												}
											}
										}
									}
								}
							}
						}
					}
				}
				JOINT RightShoulder
				{
					OFFSET -1.380118 23.180309 5.214157
					CHANNELS 3 Zrotation Yrotation Xrotation
					JOINT RightArm
					{
						OFFSET -15.037197 0.000011 -5.545604
						CHANNELS 3 Zrotation Yrotation Xrotation
						JOINT RightForeArm
						{
							OFFSET -28.736639 0.000004 -0.002598
							CHANNELS 3 Zrotation Yrotation Xrotation
							JOINT RightHand
							{
								OFFSET -27.133619 -0.000000 0.002613
								CHANNELS 3 Zrotation Yrotation Xrotation
								JOINT RightHandThumb1
								{
									OFFSET -2.274035 -1.383990 3.163127
									CHANNELS 3 Zrotation Yrotation Xrotation
									JOINT RightHandThumb2
									{
										OFFSET -4.011429 -1.827468 1.640914
										CHANNELS 3 Zrotation Yrotation Xrotation
										JOINT RightHandThumb3
										{
											OFFSET -2.794935 -0.000003 -0.000003
											CHANNELS 3 Zrotation Yrotation Xrotation
											JOINT RightHandThumbEnd
											{
												OFFSET -3.183856 0.000003 0.000000
												CHANNELS 3 Zrotation Yrotation Xrotation
												End Site
												{
													OFFSET 0.000000 0.000000 0.000000
												}
											}
										}
									}
								}
								JOINT RightHandIndex1
								{
									OFFSET -3.253270 -0.520059 2.282867
									CHANNELS 3 Zrotation Yrotation Xrotation
									JOINT RightHandIndex2
									{
										OFFSET -6.341918 0.012473 0.178265
										CHANNELS 3 Zrotation Yrotation Xrotation
										JOINT RightHandIndex3
										{
											OFFSET -3.654875 -0.000009 -0.000000
											CHANNELS 3 Zrotation Yrotation Xrotation
											JOINT RightHandIndex4
											{
												OFFSET -2.327586 -0.000001 -0.000001
												CHANNELS 3 Zrotation Yrotation Xrotation
												JOINT RightHandIndexEnd
												{
													OFFSET -2.761790 -0.180655 -0.113078
													CHANNELS 3 Zrotation Yrotation Xrotation
													End Site
													{
														OFFSET 0.000000 0.000000 0.000000
													}
												}
											}
										}
									}
								}
								JOINT RightHandMiddle1
								{
									OFFSET -3.168105 0.246594 1.001031
									CHANNELS 3 Zrotation Yrotation Xrotation
									JOINT RightHandMiddle2
									{
										OFFSET -6.180830 -0.258835 -1.000896
										CHANNELS 3 Zrotation Yrotation Xrotation
										JOINT RightHandMiddle3
										{
											OFFSET -4.348906 -0.000000 -0.000001
											CHANNELS 3 Zrotation Yrotation Xrotation
											JOINT RightHandMiddle4
											{
												OFFSET -3.000243 -0.000003 -0.000003
												CHANNELS 3 Zrotation Yrotation Xrotation
												JOINT RightHandMiddleEnd
												{
													OFFSET -2.302518 -0.294371 -0.031706
													CHANNELS 3 Zrotation Yrotation Xrotation
													End Site
													{
														OFFSET 0.000000 0.000000 0.000000
													}
												}
											}
										}
									}
								}
								JOINT RightHandRing1
								{
									OFFSET -2.885693 -0.067952 -0.308859
									CHANNELS 3 Zrotation Yrotation Xrotation
									JOINT RightHandRing2
									{
										OFFSET -5.854198 -0.486132 -1.373731
										CHANNELS 3 Zrotation Yrotation Xrotation
										JOINT RightHandRing3
										{
											OFFSET -4.338814 -0.000004 -0.000000
											CHANNELS 3 Zrotation Yrotation Xrotation
											JOINT RightHandRing4
											{
												OFFSET -2.654905 -0.000006 0.000003
												CHANNELS 3 Zrotation Yrotation Xrotation
												JOINT RightHandRingEnd
												{
													OFFSET -1.933570 0.077524 -0.000052
													CHANNELS 3 Zrotation Yrotation Xrotation
													End Site
													{
														OFFSET 0.000000 0.000000 0.000000
													}
												}
											}
										}
									}
								}
								JOINT RightHandPinky1
								{
									OFFSET -2.866429 -0.342798 -1.584145
									CHANNELS 3 Zrotation Yrotation Xrotation
									JOINT RightHandPinky2
									{
										OFFSET -5.091371 -1.332054 -1.772385
										CHANNELS 3 Zrotation Yrotation Xrotation
										JOINT RightHandPinky3
										{
											OFFSET -3.062666 -0.000007 0.000000
											CHANNELS 3 Zrotation Yrotation Xrotation
											JOINT RightHandPinky4
											{
												OFFSET -1.546527 0.000007 -0.000003
												CHANNELS 3 Zrotation Yrotation Xrotation
												JOINT RightHandPinkyEnd
												{
													OFFSET -1.945122 -0.157722 0.057211
													CHANNELS 3 Zrotation Yrotation Xrotation
													End Site
													{
														OFFSET 0.000000 0.000000 0.000000
													}
												}
											}
										}
									}
								}
							}
						}
					}
				}
			}
		}
	}
	JOINT LeftLeg
	{
		OFFSET 10.043214 -8.434526 2.595655
		CHANNELS 3 Zrotation Yrotation Xrotation
		JOINT LeftShin
		{
			OFFSET -0.000002 -43.221752 -0.802913
			CHANNELS 3 Zrotation Yrotation Xrotation
			JOINT LeftFoot
			{
				OFFSET 0.000001 -42.155094 -3.481522
				CHANNELS 3 Zrotation Yrotation Xrotation
				JOINT LeftToeBase
				{
					OFFSET 0.000000 -5.059474 13.231529
					CHANNELS 3 Zrotation Yrotation Xrotation
					JOINT LeftToeEnd
					{
						OFFSET -0.009607 -1.647615 6.513017
						CHANNELS 3 Zrotation Yrotation Xrotation
						End Site
						{
							OFFSET 0.000000 0.000000 0.000000
						}
					}
				}
			}
		}
	}
	JOINT RightLeg
	{
		OFFSET -10.047277 -8.295259 2.620317
		CHANNELS 3 Zrotation Yrotation Xrotation
		JOINT RightShin
		{
			OFFSET 0.000000 -43.362209 -0.805555
			CHANNELS 3 Zrotation Yrotation Xrotation
			JOINT RightFoot
			{
				OFFSET 0.000002 -42.117393 -3.478398
				CHANNELS 3 Zrotation Yrotation Xrotation
				JOINT RightToeBase
				{
					OFFSET -0.000001 -5.079609 13.284196
					CHANNELS 3 Zrotation Yrotation Xrotation
					JOINT RightToeEnd
					{
						OFFSET 0.009532 -1.634383 6.460591
						CHANNELS 3 Zrotation Yrotation Xrotation
						End Site
						{
							OFFSET 0.000000 0.000000 0.000000
						}
					}
				}
			}
		}
	}
}
MOTION
Frames: 4
Frame Time: 0.033333
3.164113 90.921875 -0.208202 -0.875188 5.491053 5.489697 -0.498845 -0.080409 1.459926 -0.561851 -1.135019 -4.065495 -1.611005 -2.689242 14.142799 8.732568 -2.162153 13.575101 -1.577692 -3.153067 -3.650882 1.852121 -4.888358 -7.744850 0.000077 -0.000022 0.000005 0.014536 -0.022947 -0.062208 0.767712 -3.746730 -10.588910 -0.750670 3.708473 -10.609599 10.340286 -20.193279 5.720917 -62.492962 -44.737598 -5.261540 179.948898 -47.879509 -179.827499 3.876410 -10.348356 -28.941010 -5.882102 9.861280 0.702589 -10.936860 -0.360577 7.156199 0.000002 8.774815 0.000000 -15.999169 18.103340 5.900322 -1.844030 2.498504 -2.507274 -10.163590 4.678941 4.621103 -20.975998 -0.000003 0.000006 -21.226255 2.451693 -3.593993 0.000002 -0.000006 -0.000002 -1.362680 2.240796 -0.746321 -21.334890 0.584910 3.008321 -13.821197 -0.000002 0.000004 -23.887129 -0.249081 -0.839479 -60.272415 2.458699 -1.409378 -0.294024 1.679686 0.833256 -14.218192 0.093215 1.300580 -34.212002 -0.287562 0.967170 -20.033180 0.964534 1.212842 -0.000000 -0.000002 0.000000 -3.440385 0.788233 0.501654 -15.928171 -3.167306 2.999705 -6.338817 -0.000001 0.000003 -18.123415 3.648173 -4.905663 -0.000006 0.000001 -0.000001 -11.012386 19.666874 6.589439 58.603981 37.887104 -31.443586 179.399872 40.310211 179.925690 -5.451877 4.854685 -17.853359 2.243541 -5.255033 -3.180156 14.282877 -0.826594 6.952495 -0.000003 -12.690588 0.000001 16.242884 -17.778664 2.699336 1.665666 -1.955919 -2.878295 4.727794 -4.170583 4.993918 11.020510 0.000003 -0.000001 12.109033 -3.735711 -2.866779 0.000000 -0.000001 -0.000002 1.291986 -1.928549 -1.498088 14.800113 0.567469 3.865603 14.242554 -1.341733 -6.660649 19.631939 0.143925 -0.648243 49.595062 -0.427862 -5.899883 0.353028 -1.511149 -0.031941 20.222767 3.684307 2.316628 18.787245 0.000005 -0.000000 10.751610 -0.479867 1.397904 -0.000000 0.000000 0.000001 3.273804 0.305948 -0.580110 21.486792 11.830363 2.266132 8.162918 0.000002 0.000000 18.399052 -3.798979 -4.940567 0.000003 -0.000001 -0.000001 16.797047 16.417166 -28.419573 -0.463735 -0.698411 44.104218 -19.340126 -6.637834 -14.411627 1.611434 -1.945339 -0.844700 0.000000 0.000001 0.000002 -14.154599 -27.628502 -30.489786 0.449866 0.539107 41.174793 16.957067 1.050091 -6.996655 -1.435724 0.836308 0.087273 -0.000000 0.000001 -0.000001 
2.910904 90.812912 -0.040437 -0.826715 4.886157 5.406087 -0.290057 -0.079656 1.366281 -0.499340 -1.248543 -4.106088 -1.523342 -2.831209 14.446286 8.630377 -2.113125 13.653651 -1.537047 -2.996474 -3.669310 1.840959 -4.736400 -7.790461 0.000077 -0.000022 0.000006 0.012884 -0.004446 -0.068303 0.762873 -3.727390 -10.578458 -0.749177 3.717992 -10.605958 9.260112 -20.042135 6.300629 -63.596600 -43.923565 -4.778507 179.957336 -46.961361 -179.927582 3.476401 -10.191410 -28.054691 -5.882101 9.861277 0.702589 -10.936857 -0.360577 7.156199 0.000000 8.774812 -0.000001 -15.963139 18.119097 5.903667 -1.844031 2.498502 -2.507275 -10.163588 4.678936 4.621102 -20.975998 -0.000002 0.000006 -21.226255 2.451694 -3.593991 0.000002 -0.000007 -0.000002 -1.362681 2.240795 -0.746323 -21.334896 0.584909 3.008323 -13.821197 -0.000003 0.000003 -23.887129 -0.249077 -0.839478 -60.267658 2.479965 -1.415750 -0.294025 1.679685 0.833255 -14.218194 0.093215 1.300580 -34.212002 -0.287563 0.967170 -20.033180 0.964535 1.212843 -0.000000 -0.000002 0.000000 -3.440385 0.788231 0.501657 -15.928167 -3.167307 2.999701 -6.338818 0.000000 0.000002 -18.123415 3.648175 -4.905660 -0.000005 0.000001 -0.000002 -10.902621 19.658546 6.649548 58.935310 37.421097 -30.523451 179.423447 40.016937 179.951187 -3.946260 5.013177 -17.791742 2.243540 -5.255033 -3.180154 14.282877 -0.826593 6.952495 -0.000000 -12.690590 -0.000002 16.182606 -17.705832 2.708935 1.665665 -1.955920 -2.878296 4.727795 -4.170583 4.993917 11.020511 0.000003 -0.000001 12.109031 -3.735710 -2.866778 -0.000001 0.000000 0.000000 1.291984 -1.928548 -1.498086 14.800114 0.567467 3.865602 14.242554 -1.341735 -6.660648 19.631937 0.143925 -0.648242 49.686142 -0.459407 -5.879789 0.353029 -1.511149 -0.031941 20.222769 3.684304 2.316628 18.787245 0.000004 -0.000001 10.751611 -0.479869 1.397905 -0.000000 -0.000000 0.000001 3.273804 0.305947 -0.580110 21.486790 11.830360 2.266132 8.162919 0.000000 0.000000 18.399054 -3.798979 -4.940568 0.000003 0.000000 -0.000001 17.049313 16.379642 -27.910694 -0.463920 -0.748866 44.051342 -19.630222 -6.249061 -14.789051 1.619160 -1.927231 -0.783954 -0.000000 -0.000001 0.000002 -14.018084 -27.192120 -30.926725 0.472271 0.526482 41.864124 16.989109 1.379783 -7.374630 -1.435521 0.842913 0.146597 -0.000000 0.000001 -0.000001 
2.661898 90.805176 0.108255 -0.722653 4.411122 5.419618 -0.164909 -0.095322 1.336795 -0.441368 -1.333917 -4.098866 -1.383570 -2.919045 14.542298 8.543464 -2.124613 13.731844 -1.500073 -2.913803 -3.678594 1.757069 -4.608760 -7.776436 0.000077 -0.000022 0.000004 0.013249 -0.004929 -0.061818 0.759274 -3.718592 -10.554078 -0.743170 3.707466 -10.575757 8.969479 -20.003395 6.434904 -64.034904 -43.308174 -5.034916 -179.951904 -46.315670 179.966202 3.139174 -10.037063 -27.657356 -5.882102 9.861280 0.702589 -10.936858 -0.360573 7.156199 -0.000000 8.774813 -0.000002 -15.966803 18.129431 5.924466 -1.844031 2.498503 -2.507275 -10.163589 4.678941 4.621102 -20.975996 -0.000002 0.000003 -21.226255 2.451694 -3.593994 0.000000 -0.000007 -0.000001 -1.362681 2.240797 -0.746321 -21.334890 0.584910 3.008319 -13.821197 -0.000002 0.000004 -23.887131 -0.249078 -0.839482 -60.303047 2.492921 -1.401592 -0.294024 1.679686 0.833254 -14.218194 0.093217 1.300579 -34.212006 -0.287561 0.967168 -20.033178 0.964537 1.212840 -0.000002 -0.000001 0.000000 -3.440385 0.788234 0.501657 -15.928165 -3.167305 2.999705 -6.338816 -0.000002 0.000003 -18.123415 3.648180 -4.905659 -0.000004 0.000001 -0.000002 -11.135918 19.734015 6.561399 59.069206 37.108883 -30.239588 179.486801 39.744541 179.985748 -2.899739 5.163529 -18.249903 2.243540 -5.255033 -3.180155 14.282877 -0.826593 6.952495 -0.000002 -12.690591 -0.000001 16.204395 -17.691317 2.688322 1.665665 -1.955920 -2.878296 4.727794 -4.170585 4.993917 11.020509 0.000004 -0.000001 12.109031 -3.735710 -2.866781 0.000000 0.000000 -0.000002 1.291985 -1.928548 -1.498089 14.800113 0.567468 3.865602 14.242553 -1.341734 -6.660650 19.631939 0.143926 -0.648245 49.857708 -0.492588 -5.883416 0.353029 -1.511150 -0.031938 20.222771 3.684306 2.316625 18.787249 0.000005 -0.000003 10.751612 -0.479868 1.397903 0.000001 0.000001 0.000000 3.273804 0.305947 -0.580110 21.486792 11.830363 2.266130 8.162917 0.000002 -0.000001 18.399054 -3.798978 -4.940569 0.000003 -0.000000 -0.000001 17.174814 16.270781 -27.445341 -0.456172 -0.787695 43.728558 -19.928495 -5.813848 -14.918982 1.628415 -1.917054 -0.804433 0.000000 -0.000000 0.000002 -13.966948 -26.804007 -31.150585 0.466297 0.537662 42.205524 17.113682 1.579655 -7.657248 -1.440175 0.859845 0.090991 -0.000000 0.000002 -0.000001 
2.465599 90.882362 0.186341 -0.566141 4.102185 5.503551 -0.091099 -0.080871 1.352249 -0.389805 -1.435058 -4.095448 -1.252436 -2.953376 14.484427 8.445071 -2.110415 13.823276 -1.492398 -2.884435 -3.693411 1.658043 -4.507097 -7.693196 0.000077 -0.000022 0.000005 0.016934 -0.014740 -0.061873 0.761295 -3.722869 -10.556487 -0.735387 3.693919 -10.574373 9.308295 -20.018948 6.261989 -63.676075 -43.111988 -5.945429 -179.898224 -46.060341 179.935043 2.921467 -10.075834 -27.588650 -5.882101 9.861280 0.702589 -10.936861 -0.360574 7.156198 0.000001 8.774815 0.000000 -15.977362 18.136589 5.911420 -1.844031 2.498502 -2.507275 -10.163589 4.678941 4.621106 -20.975996 -0.000002 0.000005 -21.226255 2.451694 -3.593993 0.000000 -0.000005 -0.000002 -1.362679 2.240796 -0.746322 -21.334896 0.584907 3.008323 -13.821198 -0.000001 0.000005 -23.887135 -0.249080 -0.839481 -60.293118 2.500172 -1.387299 -0.294025 1.679687 0.833257 -14.218194 0.093213 1.300580 -34.212006 -0.287563 0.967171 -20.033182 0.964534 1.212843 -0.000001 -0.000002 -0.000000 -3.440386 0.788231 0.501654 -15.928171 -3.167305 2.999704 -6.338820 -0.000000 0.000003 -18.123415 3.648178 -4.905659 -0.000004 0.000002 -0.000001 -11.613960 19.872738 6.385715 58.927814 37.046288 -30.587099 179.531647 39.584728 -179.997360 -2.298658 5.209897 -19.065996 2.243540 -5.255032 -3.180155 14.282873 -0.826593 6.952497 -0.000003 -12.690593 0.000000 16.217478 -17.653748 2.709167 1.665663 -1.955920 -2.878297 4.727796 -4.170584 4.993919 11.020510 0.000004 -0.000000 12.109031 -3.735710 -2.866779 -0.000001 0.000000 -0.000000 1.291984 -1.928547 -1.498088 14.800113 0.567467 3.865605 14.242551 -1.341733 -6.660650 19.631937 0.143927 -0.648242 49.926884 -0.496312 -5.882541 0.353029 -1.511149 -0.031940 20.222763 3.684306 2.316628 18.787245 0.000005 -0.000000 10.751610 -0.479867 1.397904 0.000000 0.000000 0.000001 3.273803 0.305948 -0.580111 21.486790 11.830362 2.266130 8.162916 0.000002 0.000000 18.399054 -3.798979 -4.940566 0.000003 -0.000002 -0.000001 17.152763 16.163460 -27.109333 -0.438986 -0.774715 43.262455 -20.178713 -5.463940 -14.766026 1.631331 -1.886762 -0.881119 0.000000 -0.000000 0.000002 -13.950673 -26.417662 -31.325289 0.469761 0.547380 42.241756 17.172421 1.545514 -7.776674 -1.443188 0.879551 0.013464 0.000000 0.000001 -0.000001 
